# Blender v2.69 (sub 0) OBJ File: 'itemScrewDriver.blend'
# www.blender.org
o Handle_Cube.001
v -0.625000 0.000000 -0.375000
v -0.625000 0.000000 -0.625000
v -0.375000 0.000000 -0.625000
v -0.375000 0.000000 -0.375000
v -0.625000 0.375000 -0.375000
v -0.625000 0.375000 -0.625000
v -0.375000 0.375000 -0.625000
v -0.375000 0.375000 -0.375000
vt 0.250000 0.375000
vt 0.000000 0.375000
vt 0.250000 0.000000
vt 0.000000 0.000000
vt 0.062500 0.625000
vt 0.062500 0.875000
vt 0.312500 0.625000
vt 0.312500 0.375000
vt 0.062500 0.375000
vt 0.312500 0.875000
vn -1.000000 0.000000 0.000000
vn 0.000000 0.000000 -1.000000
vn 1.000000 0.000000 0.000000
vn 0.000000 0.000000 1.000000
vn 0.000000 -1.000000 0.000000
vn 0.000000 1.000000 0.000000
s off
f 5/1/1 6/2/1 1/3/1
f 6/2/2 7/1/2 2/4/2
f 7/2/3 8/1/3 3/4/3
f 8/1/4 5/2/4 4/3/4
f 1/5/5 2/6/5 4/7/5
f 8/8/6 7/7/6 5/9/6
f 6/2/1 2/4/1 1/3/1
f 7/1/2 3/3/2 2/4/2
f 8/1/3 4/3/3 3/4/3
f 5/2/4 1/4/4 4/3/4
f 2/6/5 3/10/5 4/7/5
f 7/7/6 6/5/6 5/9/6
o Tip_Cube
v -0.468750 0.375000 -0.531250
v -0.468750 0.375000 -0.468750
v -0.531250 0.375000 -0.468750
v -0.531250 0.375000 -0.531250
v -0.468750 1.000000 -0.531250
v -0.468750 1.000000 -0.468750
v -0.531250 1.000000 -0.468750
v -0.531250 1.000000 -0.531250
vt 0.125000 0.937500
vt 0.125000 0.875000
vt 0.062500 0.937500
vt 0.125000 1.000000
vt 0.062500 1.000000
vt 0.000000 0.375000
vt 0.000000 1.000000
vt 0.062500 0.375000
vt 0.062500 0.875000
vn 0.000000 -1.000000 0.000000
vn 0.000000 1.000000 0.000000
vn 1.000000 0.000000 0.000000
vn 0.000000 0.000000 1.000000
vn -1.000000 0.000000 0.000000
vn 0.000000 0.000000 -1.000000
vn -0.000002 0.000000 1.000000
s off
f 9/11/7 10/12/7 12/13/7
f 13/14/8 16/15/8 14/11/8
f 9/16/9 13/17/9 10/18/9
f 10/18/10 14/15/10 11/16/10
f 11/18/11 15/15/11 12/16/11
f 13/15/12 9/18/12 16/17/12
f 10/12/7 11/19/7 12/13/7
f 16/15/8 15/13/8 14/11/8
f 13/17/9 14/15/9 10/18/9
f 14/15/13 15/17/13 11/16/13
f 15/15/11 16/17/11 12/16/11
f 9/18/12 12/16/12 16/17/12
